<?xml version="1.0"?>
<svg xmlns="http://www.w3.org/2000/svg" width="512" height="512" viewBox="0 0 128 128"><g><path d="M113.551,39.158A15.375,15.375,0,0,0,98.26,25.62h-.08a18.43,18.43,0,0,0-20.039-.429,17.95,17.95,0,0,0-1.72-.78A17.848,17.848,0,0,0,58.651,8.505c-.062,0-.123,0-.184,0a21.551,21.551,0,0,0-24.319,0c-.061,0-.122,0-.184,0A17.847,17.847,0,0,0,16.2,24.412a17.9,17.9,0,0,0,.742,33.654A21.709,21.709,0,0,0,36.279,70.019a21.449,21.449,0,0,0,4.813-.557c-.431,18.913-1.348,40.908-2.766,50.288H34.308a1.75,1.75,0,1,0,0,3.5h24a1.75,1.75,0,0,0,0-3.5H54.294c-.694-4.574-1.314-12.4-1.844-23.34l11.3-7.59a1.74,1.74,0,0,0,.47-2.42l-3.34-4.99a1.727,1.727,0,0,0-1.11-.75,1.762,1.762,0,0,0-1.32.27l-6.46,4.34c-.185-5.042-.337-10.425-.467-15.808a21.182,21.182,0,0,0,11.71-.593,18.676,18.676,0,0,0,16.1,9.341,18.25,18.25,0,0,0,3.561-.362c-.064,3.476-.142,6.976-.241,10.342l-5.53-3.13a1.74,1.74,0,0,0-2.38.66l-2.96,5.22a1.728,1.728,0,0,0,.66,2.38l9.86,5.59c-.4,9.808-.891,16.8-1.47,20.84H75.816a1.75,1.75,0,0,0,0,3.5h24a1.75,1.75,0,0,0,0-3.5H94.808c-1.267-8.7-1.828-28.875-2.069-41.9a18.213,18.213,0,0,0,3.561.363,18.632,18.632,0,0,0,16.558-10.17,15.409,15.409,0,0,0,.693-28.882ZM48.6,88.55a1.753,1.753,0,0,0,2.73,1.38l7.62-5.12,1.39,2.08L49.67,94.06a1.756,1.756,0,0,0-.77,1.53c.53,11.13,1.15,19.23,1.86,24.16h-8.9c1.761-12.326,2.531-40.892,2.756-51.426.572-.24,1.139-.5,1.692-.786.551.289,1.117.545,1.689.785C48.154,75.262,48.363,82.233,48.6,88.55ZM47.192,64.027a1.75,1.75,0,0,0-1.769,0A18.1,18.1,0,0,1,19.776,55.9a1.748,1.748,0,0,0-1.108-.955,14.4,14.4,0,0,1-.3-27.582A1.75,1.75,0,0,0,19.6,25.766,14.356,14.356,0,0,1,33.964,12.005c.107,0,.213.008.318.016l.3.016a1.763,1.763,0,0,0,1.1-.331,18.055,18.055,0,0,1,21.248,0,1.776,1.776,0,0,0,1.1.33l.3-.016c.105-.008.211-.016.318-.016A14.358,14.358,0,0,1,73.017,25.766a1.746,1.746,0,0,0,1.228,1.593,14.549,14.549,0,0,1,2.989,1.319,1.724,1.724,0,0,0,.214.12,14.4,14.4,0,0,1-3.5,26.143,1.751,1.751,0,0,0-1.108.955,18.1,18.1,0,0,1-25.646,8.131ZM84.36,119.75c.6-4.41,1.09-11.72,1.48-21.77a1.753,1.753,0,0,0-.89-1.59l-9.26-5.25,1.23-2.18,6.54,3.7a1.751,1.751,0,0,0,2.61-1.47c.139-4.586.251-9.535.338-14.4.476-.194.947-.406,1.408-.644.461.238.93.449,1.4.644.225,12.79.781,33.469,2.06,42.958Zm26.767-54.832a1.746,1.746,0,0,0-1.108.955A15.124,15.124,0,0,1,96.3,74.71a14.64,14.64,0,0,1-4.8-.8,14.074,14.074,0,0,1-2.783-1.262,1.744,1.744,0,0,0-1.776,0A15.4,15.4,0,0,1,79.33,74.71a15.16,15.16,0,0,1-12.852-7.235,21.723,21.723,0,0,0,9.2-9.409A17.9,17.9,0,0,0,81.45,27.372a14.934,14.934,0,0,1,15.192,1.444,1.717,1.717,0,0,0,1.122.331l.215-.013c.093-.006.185-.014.281-.014a11.885,11.885,0,0,1,11.892,11.387A1.751,1.751,0,0,0,111.38,42.1a11.909,11.909,0,0,1-.253,22.817Z"/><path d="M72.464,33.089A8.3,8.3,0,0,1,77.5,37.365a1.75,1.75,0,1,0,3.137-1.551,11.933,11.933,0,0,0-7.13-6.067,1.75,1.75,0,1,0-1.039,3.342Z"/></g></svg>
