<svg height="512pt" viewBox="0 -8 512 512" width="512pt" xmlns="http://www.w3.org/2000/svg"><path d="m66.109375 244.589844c32.945313 18.5625 61.535156 22.09375 78.515625 22.09375 2.253906 0 4.308594-.0625 6.136719-.160156 7.390625-.394532 13.4375-6.019532 14.375-13.375l12.71875-99.585938 5.921875-7.363281 43.492187 34.964843c29.417969 23.648438 50.667969 35.410157 71.222657 46.785157 18.375 10.167969 35.726562 19.777343 59.921874 39.226562l92.828126 74.625c3.335937 2.679688 7.398437 4.105469 11.621093 4.105469.675781 0 1.359375-.035156 2.042969-.109375 4.941406-.539063 9.375-2.96875 12.492188-6.839844l30.496093-37.9375c6.425781-7.992187 5.152344-19.726562-2.839843-26.15625l-32.269532-25.941406c-3.25-2.609375-7.992187-2.09375-10.601562 1.152344-2.609375 3.246093-2.09375 7.992187 1.152344 10.601562l32.269531 25.941407c1.511719 1.214843 1.753906 3.441406.539062 4.953124l-30.5 37.9375c-.796875.992188-1.824219 1.238282-2.367187 1.296876-.539063.054687-1.59375.039062-2.585938-.757813l-92.828125-74.625c-25.207031-20.261719-43.113281-30.171875-62.070312-40.667969-19.992188-11.0625-40.667969-22.507812-69.074219-45.339844l-43.492188-34.96875 34.914063-43.425781 43.492187 34.960938c24.660157 19.828125 42.378907 29.632812 61.144532 40.019531 20.1875 11.175781 41.0625 22.730469 70 45.992188l36.007812 28.945312c1.390625 1.121094 3.058594 1.664062 4.71875 1.664062 2.207032 0 4.390625-.964843 5.882813-2.816406 2.605469-3.246094 2.089843-7.992187-1.15625-10.601562l-36.003907-28.945313c-29.949218-24.078125-51.402343-35.949219-72.15625-47.4375-18.175781-10.058593-35.339843-19.558593-58.988281-38.574219l-43.492187-34.964843 1.691406-2.105469c6.511719-8.101562 5.21875-19.992188-2.882812-26.503906l-57.839844-46.5c-8.105469-6.515625-19.992188-5.21875-26.503906 2.878906l-1.695313 2.109375-3.253906-2.617187c-3.871094-3.113282-8.730469-4.527344-13.664063-3.996094-4.941406.539062-9.375 2.964844-12.488281 6.839844l-30.5 37.9375c-6.429687 7.996093-5.152344 19.726562 2.84375 26.152343l3.25 2.617188-6.976563 8.675781-82.597656 81.03125c-4.824218 4.734375-5.988281 11.957031-2.894531 17.976562 5.625 10.949219 22.925781 38.804688 62.03125 60.832032zm36.632813-182.882813c-1.511719-1.214843-1.753907-3.4375-.539063-4.953125l30.5-37.9375c.796875-.992187 1.824219-1.238281 2.367187-1.296875.539063-.058593 1.597657-.039062 2.585938.757813l3.253906 2.613281-34.914062 43.429687zm-85.207032 114.835938 14.738282-14.457031c9.234374 13.023437 25.949218 31.570312 53.671874 47.191406 4.164063 2.34375 8.421876 4.539062 12.667969 6.515625 1.03125.484375 2.117188.710937 3.183594.710937 2.839844 0 5.558594-1.609375 6.835937-4.351562 1.761719-3.773438.132813-8.261719-3.640624-10.023438-3.898438-1.816406-7.816407-3.832031-11.644532-5.992187-26.855468-15.128907-42.226562-33.042969-50.152344-44.765625l57.253907-56.167969c.210937-.207031.410156-.425781.597656-.65625l62.757813-78.066406c.746093-.925781 1.839843-1.40625 2.945312-1.40625.828125 0 1.664062.273437 2.359375.832031l57.839844 46.5c1.625 1.304688 1.882812 3.683594.578125 5.304688l-62.757813 78.0625c-.875 1.085937-1.425781 2.390624-1.605469 3.769531l-8.464843 66.292969c-7.171875-.613282-14.519531-1.863282-21.929688-3.742188-4.035156-1.019531-8.136719 1.421875-9.160156 5.460938-1.023437 4.035156 1.421875 8.136718 5.457031 9.160156 7.988282 2.023437 15.933594 3.386718 23.722656 4.089844l-2.609374 20.433593c-.015626.128907-.113282.222657-.226563.230469-11.234375.597656-41.179687-.148438-76.445313-20.011719-35.542968-20.027343-51.015624-44.84375-56.015624-54.589843-.058594-.113282-.042969-.242188.042968-.324219zm0 0"/><path d="m499.183594 456.101562h-99.96875c-14.636719-19.765624-22.828125-43.925781-22.828125-69.179687v-56.695313c.035156-.359374.058593-.726562.058593-1.105468 0-10.160156-13.222656-13.769532-34.558593-16.304688-18.792969-2.234375-45.4375-3.410156-77.046875-3.410156s-58.25 1.175781-77.042969 3.410156c-21.335937 2.535156-34.558594 6.144532-34.558594 16.304688 0 .378906.023438.746094.058594 1.105468v43.519532h-45.71875c-1.09375-2.207032-2.671875-4.179688-4.671875-5.761719-10.964844-8.6875-28.234375-19.042969-48.230469-19.042969-19.996093 0-37.269531 10.355469-48.234375 19.042969-4.09375 3.238281-6.43749975 8.089844-6.43749975 13.304687 0 5.214844 2.34374975 10.0625 6.43749975 13.304688 10.964844 8.6875 28.238282 19.039062 48.234375 19.039062 19.996094 0 37.265625-10.355468 48.230469-19.039062.132812-.105469.25-.226562.378906-.335938-2.792968 5.84375-4.835937 12.617188-4.835937 19.976563 0 13.605469 6.960937 25.25 12.800781 32.621094 2.59375 3.277343 6.476562 5.15625 10.652344 5.15625h.003906c4.171875 0 8.058594-1.878907 10.652344-5.15625 5.839844-7.371094 12.800781-19.015625 12.800781-32.621094 0-9.769531-3.59375-18.515625-7.777344-25.40625h15.683594c-.605469 36.992187-18.765625 71.441406-48.964844 92.90625h-89.222656v-10.554687h79.851563c4.167968 0 7.542968-3.375 7.542968-7.539063s-3.375-7.539063-7.542968-7.539063h-82.113282c-7.066406 0-12.816406 5.75-12.816406 12.816407v15.078125c0 7.070312 5.75 12.820312 12.816406 12.820312h486.367188c7.066406 0 12.816406-5.75 12.816406-12.820312v-15.078125c0-7.066407-5.75-12.816407-12.816406-12.816407zm-234.34375-131.617187c43.332031 0 69.445312 2.144531 83.792968 4.445313-13.042968 1.894531-37.652343 3.824218-83.792968 3.824218-46.136719 0-70.746094-1.929687-83.789063-3.824218 14.34375-2.300782 40.457031-4.445313 83.789063-4.445313zm-249.039063 58.289063c-.597656-.472657-.722656-1.070313-.722656-1.484376 0-.417968.125-1.011718.722656-1.484374 7.441407-5.894532 22.386719-15.78125 38.871094-15.78125 11.503906 0 22.25 4.8125 30.226563 9.726562h-22.292969c-4.164063 0-7.539063 3.375-7.539063 7.539062 0 4.164063 3.375 7.539063 7.539063 7.539063h22.292969c-7.976563 4.914063-18.722657 9.726563-30.226563 9.726563-16.484375 0-31.429687-9.890626-38.871094-15.78125zm106.101563 53.195312c-3.5625-4.832031-8.371094-12.984375-8.371094-21.734375 0-8.753906 4.8125-16.902344 8.371094-21.734375 3.566406 4.832031 8.375 12.980469 8.375 21.734375s-4.8125 16.902344-8.375 21.734375zm6.015625 45.765625c25.183593-24.144531 39.921875-57.507813 40.433593-92.90625h17.898438c4.164062 0 7.539062-3.375 7.539062-7.539063 0-4.167968-3.375-7.542968-7.539062-7.542968h-17.875v-31.855469c5.273438 1.308594 11.828125 2.242187 19.523438 3.046875 18.347656 1.921875 44.234374 2.894531 76.941406 2.894531 32.707031 0 58.59375-.972656 76.941406-2.894531 7.695312-.804688 14.25-1.738281 19.523438-3.046875v45.027344c0 36.109375 14.824218 70.238281 40.457031 94.816406zm369.003906 0h-71.539063c-4.554687-3.234375-8.832031-6.761719-12.820312-10.554687h84.359375zm0 0"/></svg>